<svg width="32" height="37" viewBox="0 0 292 337" fill="none" xmlns="http://www.w3.org/2000/svg">
<path d="M2.99805 252.032L147.496 168.021L291.998 252.032L147.5 336.042L2.99805 252.032Z" fill="url(#paint0_linear_280_16)"/>
<path d="M2.99805 252.032L147.496 168.021L291.998 252.032L147.5 336.042L2.99805 252.032Z" fill="url(#paint1_linear_280_16)"/>
<path d="M291.994 84.0105L147.496 0V168.021L291.994 252.032V84.0105Z" fill="url(#paint2_linear_280_16)"/>
<path d="M291.994 84.0105L147.496 0V168.021L291.994 252.032V84.0105Z" fill="url(#paint3_linear_280_16)"/>
<path d="M2.99805 84.0105L147.496 0V168.021L2.99805 252.032V84.0105Z" fill="url(#paint4_linear_280_16)"/>
<path d="M2.99805 84.0105L147.496 0V168.021L2.99805 252.032V84.0105Z" fill="url(#paint5_linear_280_16)"/>
<path d="M145.998 123L184.969 145.5V190.5L145.998 213L107.027 190.5V145.5L145.998 123Z" fill="#D9D9D9"/>
<path d="M147.998 164.537L147.998 126.463L180.996 145.5L147.998 164.537Z" fill="#1F2D36" stroke="white" stroke-width="4"/>
<path d="M147.998 209.537L147.997 171.463L180.996 190.5L147.998 209.537Z" fill="#1F2D36" stroke="white" stroke-width="4"/>
<path d="M150 168L182.998 148.963V187.038L150 168Z" fill="#1F2D36" stroke="white" stroke-width="4"/>
<path d="M143.998 164.55L143.998 126.475L111 145.512L143.998 164.55Z" fill="#1F2D36" stroke="white" stroke-width="4"/>
<path d="M143.999 209.55L143.999 171.476L111 190.513L143.999 209.55Z" fill="#1F2D36" stroke="white" stroke-width="4"/>
<path d="M141.996 168.013L108.998 148.976V187.05L141.996 168.013Z" fill="#1F2D36" stroke="white" stroke-width="4"/>
<g filter="url(#filter0_d_280_16)">
<circle cx="74.998" cy="126" r="6" fill="#67686D"/>
</g>
<g filter="url(#filter1_d_280_16)">
<circle cx="146.998" cy="87" r="6" fill="#67686D"/>
</g>
<g filter="url(#filter2_d_280_16)">
<circle cx="146.998" cy="249" r="6" fill="#67686D"/>
</g>
<g filter="url(#filter3_d_280_16)">
<circle cx="216.998" cy="126" r="6" fill="#67686D"/>
</g>
<g filter="url(#filter4_d_280_16)">
<circle cx="75.998" cy="207" r="6" fill="#67686D"/>
</g>
<g filter="url(#filter5_d_280_16)">
<circle cx="216.998" cy="207" r="6" fill="#67686D"/>
</g>
<path d="M146.498 2L165.118 12.5V33.5L146.498 44L127.878 33.5V12.5L146.498 2Z" fill="url(#paint6_linear_280_16)"/>
<path d="M146.498 285L165.118 295.5V316.5L146.498 327L127.878 316.5V295.5L146.498 285Z" fill="url(#paint7_linear_280_16)"/>
<path d="M21.498 73L40.1176 83.5V104.5L21.498 115L2.8785 104.5V83.5L21.498 73Z" fill="url(#paint8_linear_280_16)"/>
<path d="M270.498 73L289.118 83.5V104.5L270.498 115L251.878 104.5V83.5L270.498 73Z" fill="url(#paint9_linear_280_16)"/>
<path d="M21.498 216L40.1176 226.5V247.5L21.498 258L2.8785 247.5V226.5L21.498 216Z" fill="url(#paint10_linear_280_16)"/>
<path d="M270.498 216L289.118 226.5V247.5L270.498 258L251.878 247.5V226.5L270.498 216Z" fill="url(#paint11_linear_280_16)"/>
<path d="M154.498 172.89L180.498 157.774V188.11L154.498 203.226V172.89Z" stroke="black" stroke-width="17"/>
<path d="M137.498 172.89L111.498 157.774V188.11L137.498 203.226V172.89Z" stroke="black" stroke-width="17"/>
<path d="M145.999 158.168L119.91 143L145.998 127.832L172.088 143L145.999 158.168Z" stroke="black" stroke-width="17"/>
<path d="M145.999 208.168L119.91 193L145.998 177.832L172.088 193L145.999 208.168Z" stroke="url(#paint12_linear_280_16)" stroke-width="17"/>
<path d="M154.498 172.89L180.498 157.774V188.11L154.498 203.226V172.89Z" stroke="black" stroke-width="17"/>
<path d="M180.498 147.89L154.498 132.774V163.11L180.498 178.226V147.89Z" stroke="url(#paint13_linear_280_16)" stroke-width="17"/>
<path d="M154.498 172.89L180.498 157.774V188.11L154.498 203.226V172.89Z" stroke="url(#paint14_linear_280_16)" stroke-width="17"/>
<path d="M111.498 147.89L137.498 132.774V163.11L111.498 178.226V147.89Z" stroke="url(#paint15_linear_280_16)" stroke-width="17"/>
<path d="M137.498 172.89L111.498 157.774V188.11L137.498 203.226V172.89Z" stroke="url(#paint16_linear_280_16)" stroke-width="17"/>
<path d="M145.999 158.168L119.91 143L145.998 127.832L172.088 143L145.999 158.168Z" stroke="url(#paint17_linear_280_16)" stroke-width="17"/>
<path d="M271.182 79.5L276.822 83.5L285.322 85.5L282.263 92.7891L285.322 103.279H278.322L271.182 109.337L265.272 103.279L256.998 102.393L260.692 94.1189L256.998 86.5C256.998 86.5 262.806 85.5 265.822 83.5C268.837 81.5 271.182 79.5 271.182 79.5Z" fill="#181F25"/>
<circle cx="271.498" cy="93.5" r="5.5" fill="#FFFEFE"/>
<path d="M134.498 15L146.998 8L158.998 15V33L146.998 38L134.498 33V15Z" fill="#181F25"/>
<path d="M133.998 298L146.498 291L158.498 298V316L146.498 321L133.998 316V298Z" fill="#181F25"/>
<path d="M8.99805 86L21.498 79L33.498 86V104L21.498 109L8.99805 104V86Z" fill="#181F25"/>
<path d="M257.998 229L270.498 222L282.498 229V247L270.498 252L257.998 247V229Z" fill="#181F25"/>
<path d="M8.99805 230L21.498 223L33.498 230V248L21.498 253L8.99805 248V230Z" fill="#181F25"/>
<path d="M140.998 20.0333L146.61 17L151.998 20.0333V27.8333L146.61 30L140.998 27.8333V20.0333Z" fill="#FFFEFE"/>
<path d="M140.998 303.033L146.61 300L151.998 303.033V310.833L146.61 313L140.998 310.833V303.033Z" fill="#FFFEFE"/>
<path d="M21.505 89L23.2971 90.3406L25.998 91.0109L25.0261 93.4539L25.998 96.9697H23.7738L21.505 99L19.6271 96.9697L16.998 96.6726L18.1717 93.8996L16.9982 91.3461C16.9982 91.3461 18.8436 91.0109 19.8018 90.3406C20.76 89.6703 21.505 89 21.505 89Z" fill="#FFFEFE"/>
<path d="M270.505 232L272.297 233.341L274.998 234.011L274.026 236.454L274.998 239.97H272.774L270.505 242L268.627 239.97L265.998 239.673L267.172 236.9L265.998 234.346C265.998 234.346 267.844 234.011 268.802 233.341C269.76 232.67 270.505 232 270.505 232Z" fill="#FFFEFE"/>
<path d="M180.903 282.247L183.125 282.511L185.8 281.742L186.179 284.343L188.779 286.902L186.853 288.014L185.903 290.907L183.262 290.087L180.836 291.145L180.466 288.156L178.173 286.532C178.173 286.532 179.604 285.319 180.098 284.259C180.593 283.2 180.903 282.247 180.903 282.247Z" fill="url(#paint18_radial_280_16)"/>
<path d="M193.027 275.247L195.249 275.511L197.924 274.742L198.304 277.343L200.903 279.902L198.977 281.014L198.027 283.907L195.386 283.087L192.96 284.145L192.59 281.156L190.297 279.532C190.297 279.532 191.728 278.319 192.222 277.259C192.717 276.2 193.027 275.247 193.027 275.247Z" fill="url(#paint19_radial_280_16)"/>
<path d="M205.151 268.247L207.374 268.511L210.048 267.742L210.428 270.343L213.027 272.902L211.101 274.014L210.151 276.907L207.51 276.087L205.084 277.145L204.714 274.156L202.421 272.532C202.421 272.532 203.852 271.319 204.346 270.259C204.841 269.2 205.151 268.247 205.151 268.247Z" fill="url(#paint20_radial_280_16)"/>
<path d="M217.276 261.247L219.499 261.511L222.173 260.742L222.553 263.343L225.152 265.902L223.226 267.014L222.276 269.907L219.635 269.087L217.209 270.145L216.839 267.156L214.546 265.532C214.546 265.532 215.977 264.319 216.471 263.259C216.966 262.2 217.276 261.247 217.276 261.247Z" fill="url(#paint21_radial_280_16)"/>
<path d="M229.4 254.247L231.623 254.511L234.297 253.742L234.677 256.343L237.276 258.902L235.35 260.014L234.4 262.907L231.759 262.087L229.333 263.145L228.963 260.156L226.67 258.532C226.67 258.532 228.101 257.319 228.596 256.259C229.09 255.2 229.4 254.247 229.4 254.247Z" fill="url(#paint22_radial_280_16)"/>
<path d="M56.9032 70.2465L59.1255 70.5115L61.7997 69.7415L62.1795 72.3432L64.7791 74.902L62.8528 76.0141L61.9032 78.9068L59.2617 78.0875L56.8363 79.1447L56.4662 76.1563L54.1732 74.5317C54.1732 74.5317 55.6038 73.3187 56.0984 72.2591C56.5931 71.1995 56.9032 70.2465 56.9032 70.2465Z" fill="url(#paint23_radial_280_16)"/>
<path d="M69.0272 63.2465L71.2495 63.5115L73.9237 62.7415L74.3035 65.3432L76.9031 67.902L74.9768 69.0141L74.0272 71.9068L71.3857 71.0875L68.9603 72.1447L68.5903 69.1563L66.2972 67.5317C66.2972 67.5317 67.7278 66.3187 68.2225 65.2591C68.7171 64.1995 69.0272 63.2465 69.0272 63.2465Z" fill="url(#paint24_radial_280_16)"/>
<path d="M81.1512 56.2465L83.3735 56.5115L86.0477 55.7415L86.4275 58.3432L89.0271 60.902L87.1009 62.0141L86.1512 64.9068L83.5098 64.0875L81.0844 65.1447L80.7143 62.1563L78.4212 60.5317C78.4212 60.5317 79.8518 59.3187 80.3465 58.2591C80.8412 57.1995 81.1512 56.2465 81.1512 56.2465Z" fill="url(#paint25_radial_280_16)"/>
<path d="M93.2762 49.2465L95.4985 49.5115L98.1727 48.7415L98.5525 51.3432L101.152 53.902L99.2259 55.0141L98.2762 57.9068L95.6348 57.0875L93.2094 58.1447L92.8393 55.1563L90.5462 53.5317C90.5462 53.5317 91.9768 52.3187 92.4715 51.2591C92.9662 50.1995 93.2762 49.2465 93.2762 49.2465Z" fill="url(#paint26_radial_280_16)"/>
<path d="M105.4 42.2465L107.623 42.5115L110.297 41.7415L110.677 44.3432L113.276 46.902L111.35 48.0141L110.4 50.9068L107.759 50.0875L105.333 51.1447L104.963 48.1563L102.67 46.5317C102.67 46.5317 104.101 45.3187 104.596 44.2591C105.09 43.1995 105.4 42.2465 105.4 42.2465Z" fill="url(#paint27_radial_280_16)"/>
<path d="M26.998 238.5C26.998 241.538 24.5356 244 21.498 244C18.4605 244 15.998 241.538 15.998 238.5C15.998 235.462 18.4605 233 21.498 233C24.5356 233 26.998 235.462 26.998 238.5Z" fill="#FFFEFE"/>
<path d="M65.6932 266.928C64.8648 268.363 63.03 268.855 61.5951 268.026C60.1603 267.198 59.6686 265.363 60.4971 263.928C61.3255 262.493 63.1603 262.002 64.5951 262.83C66.03 263.659 66.5216 265.493 65.6932 266.928Z" fill="url(#paint28_radial_280_16)"/>
<path d="M74.3534 271.928C73.525 273.363 71.6902 273.855 70.2553 273.026C68.8204 272.198 68.3288 270.363 69.1572 268.928C69.9857 267.493 71.8204 267.002 73.2553 267.83C74.6902 268.659 75.1818 270.493 74.3534 271.928Z" fill="url(#paint29_radial_280_16)"/>
<path d="M83.0145 276.928C82.1861 278.363 80.3513 278.855 78.9164 278.026C77.4816 277.198 76.9899 275.363 77.8184 273.928C78.6468 272.493 80.4816 272.002 81.9164 272.83C83.3513 273.659 83.8429 275.493 83.0145 276.928Z" fill="url(#paint30_radial_280_16)"/>
<path d="M91.6747 281.928C90.8462 283.363 89.0115 283.855 87.5766 283.026C86.1417 282.198 85.6501 280.363 86.4785 278.928C87.3069 277.493 89.1417 277.002 90.5766 277.83C92.0115 278.659 92.5031 280.493 91.6747 281.928Z" fill="url(#paint31_radial_280_16)"/>
<path d="M100.335 286.928C99.5064 288.363 97.6716 288.855 96.2367 288.026C94.8019 287.198 94.3102 285.363 95.1387 283.928C95.9671 282.493 97.8019 282.002 99.2367 282.83C100.672 283.659 101.163 285.493 100.335 286.928Z" fill="url(#paint32_radial_280_16)"/>
<path d="M188.693 46.9282C187.865 48.363 186.03 48.8547 184.595 48.0262C183.16 47.1978 182.669 45.363 183.497 43.9282C184.325 42.4933 186.16 42.0017 187.595 42.8301C189.03 43.6585 189.522 45.4933 188.693 46.9282Z" fill="url(#paint33_radial_280_16)"/>
<path d="M197.353 51.9282C196.525 53.363 194.69 53.8547 193.255 53.0262C191.82 52.1978 191.329 50.363 192.157 48.9282C192.986 47.4933 194.82 47.0017 196.255 47.8301C197.69 48.6585 198.182 50.4933 197.353 51.9282Z" fill="url(#paint34_radial_280_16)"/>
<path d="M206.015 56.9282C205.186 58.363 203.351 58.8547 201.916 58.0262C200.482 57.1978 199.99 55.363 200.818 53.9282C201.647 52.4933 203.482 52.0017 204.916 52.8301C206.351 53.6585 206.843 55.4933 206.015 56.9282Z" fill="url(#paint35_radial_280_16)"/>
<path d="M214.675 61.9282C213.846 63.363 212.011 63.8547 210.577 63.0262C209.142 62.1978 208.65 60.363 209.479 58.9282C210.307 57.4933 212.142 57.0017 213.577 57.8301C215.011 58.6585 215.503 60.4933 214.675 61.9282Z" fill="url(#paint36_radial_280_16)"/>
<path d="M223.335 66.9282C222.506 68.363 220.672 68.8547 219.237 68.0262C217.802 67.1978 217.31 65.363 218.139 63.9282C218.967 62.4933 220.802 62.0017 222.237 62.8301C223.672 63.6585 224.163 65.4933 223.335 66.9282Z" fill="url(#paint37_radial_280_16)"/>
<rect x="7.99805" y="185" width="4" height="16" transform="rotate(-90 7.99805 185)" fill="url(#paint38_radial_280_16)"/>
<rect x="7.99805" y="179" width="4" height="16" transform="rotate(-90 7.99805 179)" fill="url(#paint39_radial_280_16)"/>
<rect x="7.99805" y="167" width="4" height="16" transform="rotate(-90 7.99805 167)" fill="url(#paint40_radial_280_16)"/>
<rect x="7.99805" y="173" width="4" height="16" transform="rotate(-90 7.99805 173)" fill="url(#paint41_radial_280_16)"/>
<rect x="7.99805" y="161" width="4" height="16" transform="rotate(-90 7.99805 161)" fill="url(#paint42_radial_280_16)"/>
<rect x="7.99805" y="155" width="4" height="16" transform="rotate(-90 7.99805 155)" fill="url(#paint43_radial_280_16)"/>
<rect x="7.99805" y="143" width="4" height="16" transform="rotate(-90 7.99805 143)" fill="url(#paint44_radial_280_16)"/>
<rect x="7.99805" y="149" width="4" height="16" transform="rotate(-90 7.99805 149)" fill="url(#paint45_radial_280_16)"/>
<rect x="265.998" y="182" width="4" height="16" transform="rotate(-90 265.998 182)" fill="url(#paint46_radial_280_16)"/>
<rect x="265.998" y="176" width="4" height="16" transform="rotate(-90 265.998 176)" fill="url(#paint47_radial_280_16)"/>
<rect x="265.998" y="164" width="4" height="16" transform="rotate(-90 265.998 164)" fill="url(#paint48_radial_280_16)"/>
<rect x="265.998" y="170" width="4" height="16" transform="rotate(-90 265.998 170)" fill="url(#paint49_radial_280_16)"/>
<rect x="265.998" y="158" width="4" height="16" transform="rotate(-90 265.998 158)" fill="url(#paint50_radial_280_16)"/>
<rect x="265.998" y="152" width="4" height="16" transform="rotate(-90 265.998 152)" fill="url(#paint51_radial_280_16)"/>
<rect x="265.998" y="140" width="4" height="16" transform="rotate(-90 265.998 140)" fill="url(#paint52_radial_280_16)"/>
<rect x="265.998" y="146" width="4" height="16" transform="rotate(-90 265.998 146)" fill="url(#paint53_radial_280_16)"/>
<g filter="url(#filter6_df_280_16)">
<path fill-rule="evenodd" clip-rule="evenodd" d="M86.998 126.5C86.998 122.093 84.7175 118.219 81.2722 115.993L134.954 85C134.945 85.1919 134.94 85.385 134.94 85.5791C134.94 90.2031 137.451 94.2407 141.184 96.403L86.9392 127.721C86.9781 127.319 86.998 126.912 86.998 126.5ZM74.498 139C77.3077 139 79.9009 138.073 81.9884 136.508V197.815C80.0966 196.663 77.8748 196 75.498 196C73.1173 196 70.892 196.666 68.998 197.821V137.728C70.6577 138.543 72.5245 139 74.498 139ZM80.7327 219.854L135.017 251.196C135.004 250.965 134.998 250.733 134.998 250.5C134.998 245.916 137.465 241.909 141.144 239.733L87.9865 209.042C87.7814 213.845 84.8669 217.945 80.7327 219.854ZM159.998 250.541L212.768 220.074C208.513 218.333 205.432 214.315 205.04 209.535L153.284 239.417C157.275 241.505 159.998 245.684 159.998 250.5L159.998 250.541ZM224.883 137.587V198.413C222.814 196.896 220.26 196 217.498 196C215.482 196 213.578 196.477 211.892 197.324V138.676C213.578 139.523 215.482 140 217.498 140C220.26 140 222.814 139.104 224.883 137.587ZM212.608 115.993L159.94 85.5851C159.938 90.4154 157.196 94.605 153.184 96.6843L205.029 126.617C205.363 121.83 208.392 117.787 212.608 115.993Z" fill="#D9D9D9"/>
</g>
<defs>
<filter id="filter0_d_280_16" x="68.998" y="120" width="34" height="34" filterUnits="userSpaceOnUse" color-interpolation-filters="sRGB">
<feFlood flood-opacity="0" result="BackgroundImageFix"/>
<feColorMatrix in="SourceAlpha" type="matrix" values="0 0 0 0 0 0 0 0 0 0 0 0 0 0 0 0 0 0 127 0" result="hardAlpha"/>
<feMorphology radius="3" operator="dilate" in="SourceAlpha" result="effect1_dropShadow_280_16"/>
<feOffset dx="15" dy="15"/>
<feGaussianBlur stdDeviation="2"/>
<feComposite in2="hardAlpha" operator="out"/>
<feColorMatrix type="matrix" values="0 0 0 0 0 0 0 0 0 0 0 0 0 0 0 0 0 0 0.15 0"/>
<feBlend mode="normal" in2="BackgroundImageFix" result="effect1_dropShadow_280_16"/>
<feBlend mode="normal" in="SourceGraphic" in2="effect1_dropShadow_280_16" result="shape"/>
</filter>
<filter id="filter1_d_280_16" x="140.998" y="81" width="34" height="34" filterUnits="userSpaceOnUse" color-interpolation-filters="sRGB">
<feFlood flood-opacity="0" result="BackgroundImageFix"/>
<feColorMatrix in="SourceAlpha" type="matrix" values="0 0 0 0 0 0 0 0 0 0 0 0 0 0 0 0 0 0 127 0" result="hardAlpha"/>
<feMorphology radius="3" operator="dilate" in="SourceAlpha" result="effect1_dropShadow_280_16"/>
<feOffset dx="15" dy="15"/>
<feGaussianBlur stdDeviation="2"/>
<feComposite in2="hardAlpha" operator="out"/>
<feColorMatrix type="matrix" values="0 0 0 0 0 0 0 0 0 0 0 0 0 0 0 0 0 0 0.15 0"/>
<feBlend mode="normal" in2="BackgroundImageFix" result="effect1_dropShadow_280_16"/>
<feBlend mode="normal" in="SourceGraphic" in2="effect1_dropShadow_280_16" result="shape"/>
</filter>
<filter id="filter2_d_280_16" x="140.998" y="243" width="34" height="34" filterUnits="userSpaceOnUse" color-interpolation-filters="sRGB">
<feFlood flood-opacity="0" result="BackgroundImageFix"/>
<feColorMatrix in="SourceAlpha" type="matrix" values="0 0 0 0 0 0 0 0 0 0 0 0 0 0 0 0 0 0 127 0" result="hardAlpha"/>
<feMorphology radius="3" operator="dilate" in="SourceAlpha" result="effect1_dropShadow_280_16"/>
<feOffset dx="15" dy="15"/>
<feGaussianBlur stdDeviation="2"/>
<feComposite in2="hardAlpha" operator="out"/>
<feColorMatrix type="matrix" values="0 0 0 0 0 0 0 0 0 0 0 0 0 0 0 0 0 0 0.2 0"/>
<feBlend mode="normal" in2="BackgroundImageFix" result="effect1_dropShadow_280_16"/>
<feBlend mode="normal" in="SourceGraphic" in2="effect1_dropShadow_280_16" result="shape"/>
</filter>
<filter id="filter3_d_280_16" x="210.998" y="120" width="34" height="34" filterUnits="userSpaceOnUse" color-interpolation-filters="sRGB">
<feFlood flood-opacity="0" result="BackgroundImageFix"/>
<feColorMatrix in="SourceAlpha" type="matrix" values="0 0 0 0 0 0 0 0 0 0 0 0 0 0 0 0 0 0 127 0" result="hardAlpha"/>
<feMorphology radius="3" operator="dilate" in="SourceAlpha" result="effect1_dropShadow_280_16"/>
<feOffset dx="15" dy="15"/>
<feGaussianBlur stdDeviation="2"/>
<feComposite in2="hardAlpha" operator="out"/>
<feColorMatrix type="matrix" values="0 0 0 0 0 0 0 0 0 0 0 0 0 0 0 0 0 0 0.15 0"/>
<feBlend mode="normal" in2="BackgroundImageFix" result="effect1_dropShadow_280_16"/>
<feBlend mode="normal" in="SourceGraphic" in2="effect1_dropShadow_280_16" result="shape"/>
</filter>
<filter id="filter4_d_280_16" x="69.998" y="201" width="34" height="34" filterUnits="userSpaceOnUse" color-interpolation-filters="sRGB">
<feFlood flood-opacity="0" result="BackgroundImageFix"/>
<feColorMatrix in="SourceAlpha" type="matrix" values="0 0 0 0 0 0 0 0 0 0 0 0 0 0 0 0 0 0 127 0" result="hardAlpha"/>
<feMorphology radius="3" operator="dilate" in="SourceAlpha" result="effect1_dropShadow_280_16"/>
<feOffset dx="15" dy="15"/>
<feGaussianBlur stdDeviation="2"/>
<feComposite in2="hardAlpha" operator="out"/>
<feColorMatrix type="matrix" values="0 0 0 0 0 0 0 0 0 0 0 0 0 0 0 0 0 0 0.3 0"/>
<feBlend mode="normal" in2="BackgroundImageFix" result="effect1_dropShadow_280_16"/>
<feBlend mode="normal" in="SourceGraphic" in2="effect1_dropShadow_280_16" result="shape"/>
</filter>
<filter id="filter5_d_280_16" x="210.998" y="201" width="34" height="34" filterUnits="userSpaceOnUse" color-interpolation-filters="sRGB">
<feFlood flood-opacity="0" result="BackgroundImageFix"/>
<feColorMatrix in="SourceAlpha" type="matrix" values="0 0 0 0 0 0 0 0 0 0 0 0 0 0 0 0 0 0 127 0" result="hardAlpha"/>
<feMorphology radius="3" operator="dilate" in="SourceAlpha" result="effect1_dropShadow_280_16"/>
<feOffset dx="15" dy="15"/>
<feGaussianBlur stdDeviation="2"/>
<feComposite in2="hardAlpha" operator="out"/>
<feColorMatrix type="matrix" values="0 0 0 0 0 0 0 0 0 0 0 0 0 0 0 0 0 0 0.2 0"/>
<feBlend mode="normal" in2="BackgroundImageFix" result="effect1_dropShadow_280_16"/>
<feBlend mode="normal" in="SourceGraphic" in2="effect1_dropShadow_280_16" result="shape"/>
</filter>
<filter id="filter6_df_280_16" x="64.998" y="84" width="163.885" height="175.195" filterUnits="userSpaceOnUse" color-interpolation-filters="sRGB">
<feFlood flood-opacity="0" result="BackgroundImageFix"/>
<feColorMatrix in="SourceAlpha" type="matrix" values="0 0 0 0 0 0 0 0 0 0 0 0 0 0 0 0 0 0 127 0" result="hardAlpha"/>
<feOffset dy="4"/>
<feGaussianBlur stdDeviation="2"/>
<feComposite in2="hardAlpha" operator="out"/>
<feColorMatrix type="matrix" values="0 0 0 0 0 0 0 0 0 0 0 0 0 0 0 0 0 0 0.25 0"/>
<feBlend mode="normal" in2="BackgroundImageFix" result="effect1_dropShadow_280_16"/>
<feBlend mode="normal" in="SourceGraphic" in2="effect1_dropShadow_280_16" result="shape"/>
<feGaussianBlur stdDeviation="0.5" result="effect2_foregroundBlur_280_16"/>
</filter>
<linearGradient id="paint0_linear_280_16" x1="147.498" y1="168.021" x2="147.498" y2="336.042" gradientUnits="userSpaceOnUse">
<stop offset="0.235" stop-color="#123558"/>
<stop offset="0.505" stop-color="#5283B4"/>
<stop offset="0.99" stop-color="#2672BE"/>
</linearGradient>
<linearGradient id="paint1_linear_280_16" x1="147.498" y1="168.021" x2="147.498" y2="336.042" gradientUnits="userSpaceOnUse">
<stop offset="0.235" stop-color="#123558"/>
<stop offset="0.505" stop-color="#5283B4"/>
<stop offset="0.99" stop-color="#2672BE"/>
</linearGradient>
<linearGradient id="paint2_linear_280_16" x1="291.998" y1="85" x2="146.998" y2="172" gradientUnits="userSpaceOnUse">
<stop stop-color="#2865A2"/>
<stop offset="0.465" stop-color="#88A6BE"/>
<stop offset="0.93" stop-color="#003061"/>
</linearGradient>
<linearGradient id="paint3_linear_280_16" x1="291.998" y1="85" x2="146.998" y2="172" gradientUnits="userSpaceOnUse">
<stop stop-color="#2865A2"/>
<stop offset="0.465" stop-color="#88A6BE"/>
<stop offset="0.93" stop-color="#003061"/>
</linearGradient>
<linearGradient id="paint4_linear_280_16" x1="2.99805" y1="83" x2="146.998" y2="171.5" gradientUnits="userSpaceOnUse">
<stop stop-color="#2865A2"/>
<stop offset="0.37" stop-color="#88A6BE"/>
<stop offset="0.92" stop-color="#003061"/>
</linearGradient>
<linearGradient id="paint5_linear_280_16" x1="2.99805" y1="83" x2="146.998" y2="171.5" gradientUnits="userSpaceOnUse">
<stop stop-color="#2865A2"/>
<stop offset="0.37" stop-color="#88A6BE"/>
<stop offset="0.92" stop-color="#003061"/>
</linearGradient>
<linearGradient id="paint6_linear_280_16" x1="146.498" y1="2" x2="146.498" y2="44" gradientUnits="userSpaceOnUse">
<stop stop-color="#A9ACB3"/>
<stop offset="1" stop-color="#494A4D"/>
</linearGradient>
<linearGradient id="paint7_linear_280_16" x1="146.498" y1="285" x2="146.498" y2="327" gradientUnits="userSpaceOnUse">
<stop stop-color="#A9ACB3"/>
<stop offset="1" stop-color="#494A4D"/>
</linearGradient>
<linearGradient id="paint8_linear_280_16" x1="21.498" y1="73" x2="21.498" y2="115" gradientUnits="userSpaceOnUse">
<stop stop-color="#A9ACB3"/>
<stop offset="1" stop-color="#494A4D"/>
</linearGradient>
<linearGradient id="paint9_linear_280_16" x1="270.498" y1="73" x2="270.498" y2="115" gradientUnits="userSpaceOnUse">
<stop stop-color="#A9ACB3"/>
<stop offset="1" stop-color="#494A4D"/>
</linearGradient>
<linearGradient id="paint10_linear_280_16" x1="21.498" y1="216" x2="21.498" y2="258" gradientUnits="userSpaceOnUse">
<stop stop-color="#A9ACB3"/>
<stop offset="1" stop-color="#494A4D"/>
</linearGradient>
<linearGradient id="paint11_linear_280_16" x1="270.498" y1="216" x2="270.498" y2="258" gradientUnits="userSpaceOnUse">
<stop stop-color="#A9ACB3"/>
<stop offset="1" stop-color="#494A4D"/>
</linearGradient>
<linearGradient id="paint12_linear_280_16" x1="145.998" y1="169.5" x2="151.498" y2="200.5" gradientUnits="userSpaceOnUse">
<stop offset="0.0635683" stop-color="#2E82B9"/>
<stop offset="0.40713" stop-color="#7C7C7C"/>
<stop offset="0.994954" stop-color="#AFAFAF"/>
</linearGradient>
<linearGradient id="paint13_linear_280_16" x1="181.498" y1="180" x2="156.998" y2="168" gradientUnits="userSpaceOnUse">
<stop offset="0.0601866" stop-color="#3078A6"/>
<stop offset="1" stop-color="#3B4043"/>
</linearGradient>
<linearGradient id="paint14_linear_280_16" x1="145.998" y1="180" x2="188.998" y2="203" gradientUnits="userSpaceOnUse">
<stop stop-color="#D5D6D8"/>
<stop offset="0.403464" stop-color="#B0B2B9"/>
<stop offset="1" stop-color="#2D8CCA"/>
</linearGradient>
<linearGradient id="paint15_linear_280_16" x1="107.998" y1="185.5" x2="134.998" y2="193" gradientUnits="userSpaceOnUse">
<stop stop-color="#2D8CCA"/>
<stop offset="1" stop-color="#3C3C3C"/>
</linearGradient>
<linearGradient id="paint16_linear_280_16" x1="109.998" y1="149" x2="141.498" y2="218" gradientUnits="userSpaceOnUse">
<stop stop-color="#2D8CCA"/>
<stop offset="0.31986" stop-color="#E2E2E2"/>
<stop offset="0.93463" stop-color="#A9ACB3"/>
</linearGradient>
<linearGradient id="paint17_linear_280_16" x1="116.998" y1="143" x2="145.998" y2="161.5" gradientUnits="userSpaceOnUse">
<stop stop-color="#3B92CB"/>
<stop offset="1" stop-color="#CDCED1"/>
</linearGradient>
<radialGradient id="paint18_radial_280_16" cx="0" cy="0" r="1" gradientUnits="userSpaceOnUse" gradientTransform="translate(183.397 286.58) rotate(60) scale(5 4.5)">
<stop stop-color="#3B92CB"/>
<stop offset="1" stop-color="#DADADC"/>
</radialGradient>
<radialGradient id="paint19_radial_280_16" cx="0" cy="0" r="1" gradientUnits="userSpaceOnUse" gradientTransform="translate(195.521 279.58) rotate(60) scale(5 4.5)">
<stop stop-color="#3B92CB"/>
<stop offset="1" stop-color="#DADADC"/>
</radialGradient>
<radialGradient id="paint20_radial_280_16" cx="0" cy="0" r="1" gradientUnits="userSpaceOnUse" gradientTransform="translate(207.645 272.58) rotate(60) scale(5 4.5)">
<stop stop-color="#3B92CB"/>
<stop offset="1" stop-color="#DADADC"/>
</radialGradient>
<radialGradient id="paint21_radial_280_16" cx="0" cy="0" r="1" gradientUnits="userSpaceOnUse" gradientTransform="translate(219.77 265.58) rotate(60) scale(5 4.5)">
<stop stop-color="#3B92CB"/>
<stop offset="1" stop-color="#DADADC"/>
</radialGradient>
<radialGradient id="paint22_radial_280_16" cx="0" cy="0" r="1" gradientUnits="userSpaceOnUse" gradientTransform="translate(231.894 258.58) rotate(60) scale(5 4.5)">
<stop stop-color="#3B92CB"/>
<stop offset="1" stop-color="#DADADC"/>
</radialGradient>
<radialGradient id="paint23_radial_280_16" cx="0" cy="0" r="1" gradientUnits="userSpaceOnUse" gradientTransform="translate(59.3971 74.5801) rotate(60) scale(5 4.5)">
<stop stop-color="#3B92CB"/>
<stop offset="1" stop-color="#DADADC"/>
</radialGradient>
<radialGradient id="paint24_radial_280_16" cx="0" cy="0" r="1" gradientUnits="userSpaceOnUse" gradientTransform="translate(71.5211 67.5801) rotate(60) scale(5 4.5)">
<stop stop-color="#3B92CB"/>
<stop offset="1" stop-color="#DADADC"/>
</radialGradient>
<radialGradient id="paint25_radial_280_16" cx="0" cy="0" r="1" gradientUnits="userSpaceOnUse" gradientTransform="translate(83.6452 60.5801) rotate(60) scale(5 4.5)">
<stop stop-color="#3B92CB"/>
<stop offset="1" stop-color="#DADADC"/>
</radialGradient>
<radialGradient id="paint26_radial_280_16" cx="0" cy="0" r="1" gradientUnits="userSpaceOnUse" gradientTransform="translate(95.7702 53.5801) rotate(60) scale(5 4.5)">
<stop stop-color="#3B92CB"/>
<stop offset="1" stop-color="#DADADC"/>
</radialGradient>
<radialGradient id="paint27_radial_280_16" cx="0" cy="0" r="1" gradientUnits="userSpaceOnUse" gradientTransform="translate(107.894 46.5801) rotate(60) scale(5 4.5)">
<stop stop-color="#3B92CB"/>
<stop offset="1" stop-color="#DADADC"/>
</radialGradient>
<radialGradient id="paint28_radial_280_16" cx="0" cy="0" r="1" gradientUnits="userSpaceOnUse" gradientTransform="translate(63.0951 265.428) rotate(120) scale(3)">
<stop stop-color="#2D8CCA"/>
<stop offset="0.89" stop-color="#FFFEFE"/>
</radialGradient>
<radialGradient id="paint29_radial_280_16" cx="0" cy="0" r="1" gradientUnits="userSpaceOnUse" gradientTransform="translate(71.7553 270.428) rotate(120) scale(3)">
<stop stop-color="#2D8CCA"/>
<stop offset="0.89" stop-color="#FFFEFE"/>
</radialGradient>
<radialGradient id="paint30_radial_280_16" cx="0" cy="0" r="1" gradientUnits="userSpaceOnUse" gradientTransform="translate(80.4164 275.428) rotate(120) scale(3)">
<stop stop-color="#2D8CCA"/>
<stop offset="0.89" stop-color="#FFFEFE"/>
</radialGradient>
<radialGradient id="paint31_radial_280_16" cx="0" cy="0" r="1" gradientUnits="userSpaceOnUse" gradientTransform="translate(89.0766 280.428) rotate(120) scale(3)">
<stop stop-color="#2D8CCA"/>
<stop offset="0.89" stop-color="#FFFEFE"/>
</radialGradient>
<radialGradient id="paint32_radial_280_16" cx="0" cy="0" r="1" gradientUnits="userSpaceOnUse" gradientTransform="translate(97.7367 285.428) rotate(120) scale(3)">
<stop stop-color="#2D8CCA"/>
<stop offset="0.89" stop-color="#FFFEFE"/>
</radialGradient>
<radialGradient id="paint33_radial_280_16" cx="0" cy="0" r="1" gradientUnits="userSpaceOnUse" gradientTransform="translate(186.095 45.4282) rotate(120) scale(3)">
<stop stop-color="#2D8CCA"/>
<stop offset="0.89" stop-color="#FFFEFE"/>
</radialGradient>
<radialGradient id="paint34_radial_280_16" cx="0" cy="0" r="1" gradientUnits="userSpaceOnUse" gradientTransform="translate(194.755 50.4282) rotate(120) scale(3)">
<stop stop-color="#2D8CCA"/>
<stop offset="0.89" stop-color="#FFFEFE"/>
</radialGradient>
<radialGradient id="paint35_radial_280_16" cx="0" cy="0" r="1" gradientUnits="userSpaceOnUse" gradientTransform="translate(203.416 55.4282) rotate(120) scale(3)">
<stop stop-color="#2D8CCA"/>
<stop offset="0.89" stop-color="#FFFEFE"/>
</radialGradient>
<radialGradient id="paint36_radial_280_16" cx="0" cy="0" r="1" gradientUnits="userSpaceOnUse" gradientTransform="translate(212.077 60.4282) rotate(120) scale(3)">
<stop stop-color="#2D8CCA"/>
<stop offset="0.89" stop-color="#FFFEFE"/>
</radialGradient>
<radialGradient id="paint37_radial_280_16" cx="0" cy="0" r="1" gradientUnits="userSpaceOnUse" gradientTransform="translate(220.737 65.4282) rotate(120) scale(3)">
<stop stop-color="#2D8CCA"/>
<stop offset="0.89" stop-color="#FFFEFE"/>
</radialGradient>
<radialGradient id="paint38_radial_280_16" cx="0" cy="0" r="1" gradientUnits="userSpaceOnUse" gradientTransform="translate(9.99805 193) rotate(-180) scale(2 8)">
<stop stop-color="#3B92CB"/>
<stop offset="1" stop-color="#DADADC"/>
</radialGradient>
<radialGradient id="paint39_radial_280_16" cx="0" cy="0" r="1" gradientUnits="userSpaceOnUse" gradientTransform="translate(9.99805 187) rotate(-180) scale(2 8)">
<stop stop-color="#3B92CB"/>
<stop offset="1" stop-color="#DADADC"/>
</radialGradient>
<radialGradient id="paint40_radial_280_16" cx="0" cy="0" r="1" gradientUnits="userSpaceOnUse" gradientTransform="translate(9.99805 175) rotate(-180) scale(2 8)">
<stop stop-color="#3B92CB"/>
<stop offset="1" stop-color="#DADADC"/>
</radialGradient>
<radialGradient id="paint41_radial_280_16" cx="0" cy="0" r="1" gradientUnits="userSpaceOnUse" gradientTransform="translate(9.99805 181) rotate(-180) scale(2 8)">
<stop stop-color="#3B92CB"/>
<stop offset="1" stop-color="#DADADC"/>
</radialGradient>
<radialGradient id="paint42_radial_280_16" cx="0" cy="0" r="1" gradientUnits="userSpaceOnUse" gradientTransform="translate(9.99805 169) rotate(-180) scale(2 8)">
<stop stop-color="#3B92CB"/>
<stop offset="1" stop-color="#DADADC"/>
</radialGradient>
<radialGradient id="paint43_radial_280_16" cx="0" cy="0" r="1" gradientUnits="userSpaceOnUse" gradientTransform="translate(9.99805 163) rotate(-180) scale(2 8)">
<stop stop-color="#3B92CB"/>
<stop offset="1" stop-color="#DADADC"/>
</radialGradient>
<radialGradient id="paint44_radial_280_16" cx="0" cy="0" r="1" gradientUnits="userSpaceOnUse" gradientTransform="translate(9.99805 151) rotate(-180) scale(2 8)">
<stop stop-color="#3B92CB"/>
<stop offset="1" stop-color="#DADADC"/>
</radialGradient>
<radialGradient id="paint45_radial_280_16" cx="0" cy="0" r="1" gradientUnits="userSpaceOnUse" gradientTransform="translate(9.99805 157) rotate(-180) scale(2 8)">
<stop stop-color="#3B92CB"/>
<stop offset="1" stop-color="#DADADC"/>
</radialGradient>
<radialGradient id="paint46_radial_280_16" cx="0" cy="0" r="1" gradientUnits="userSpaceOnUse" gradientTransform="translate(267.998 190) rotate(-180) scale(2 8)">
<stop stop-color="#3B92CB"/>
<stop offset="1" stop-color="#DADADC"/>
</radialGradient>
<radialGradient id="paint47_radial_280_16" cx="0" cy="0" r="1" gradientUnits="userSpaceOnUse" gradientTransform="translate(267.998 184) rotate(-180) scale(2 8)">
<stop stop-color="#3B92CB"/>
<stop offset="1" stop-color="#DADADC"/>
</radialGradient>
<radialGradient id="paint48_radial_280_16" cx="0" cy="0" r="1" gradientUnits="userSpaceOnUse" gradientTransform="translate(267.998 172) rotate(-180) scale(2 8)">
<stop stop-color="#3B92CB"/>
<stop offset="1" stop-color="#DADADC"/>
</radialGradient>
<radialGradient id="paint49_radial_280_16" cx="0" cy="0" r="1" gradientUnits="userSpaceOnUse" gradientTransform="translate(267.998 178) rotate(-180) scale(2 8)">
<stop stop-color="#3B92CB"/>
<stop offset="1" stop-color="#DADADC"/>
</radialGradient>
<radialGradient id="paint50_radial_280_16" cx="0" cy="0" r="1" gradientUnits="userSpaceOnUse" gradientTransform="translate(267.998 166) rotate(-180) scale(2 8)">
<stop stop-color="#3B92CB"/>
<stop offset="1" stop-color="#DADADC"/>
</radialGradient>
<radialGradient id="paint51_radial_280_16" cx="0" cy="0" r="1" gradientUnits="userSpaceOnUse" gradientTransform="translate(267.998 160) rotate(-180) scale(2 8)">
<stop stop-color="#3B92CB"/>
<stop offset="1" stop-color="#DADADC"/>
</radialGradient>
<radialGradient id="paint52_radial_280_16" cx="0" cy="0" r="1" gradientUnits="userSpaceOnUse" gradientTransform="translate(267.998 148) rotate(-180) scale(2 8)">
<stop stop-color="#3B92CB"/>
<stop offset="1" stop-color="#DADADC"/>
</radialGradient>
<radialGradient id="paint53_radial_280_16" cx="0" cy="0" r="1" gradientUnits="userSpaceOnUse" gradientTransform="translate(267.998 154) rotate(-180) scale(2 8)">
<stop stop-color="#3B92CB"/>
<stop offset="1" stop-color="#DADADC"/>
</radialGradient>
</defs>
</svg>
